<?xml version="1.0" encoding="UTF-8" standalone="no"?>
<!-- Created with Inkscape (http://www.inkscape.org/) -->

<svg
   width="104.4662mm"
   height="114.51693mm"
   viewBox="0 0 104.4662 114.51693"
   version="1.1"
   id="svg5"
   inkscape:version="1.1 (c68e22c387, 2021-05-23)"
   sodipodi:docname="jolly.svg"
   xmlns:inkscape="http://www.inkscape.org/namespaces/inkscape"
   xmlns:sodipodi="http://sodipodi.sourceforge.net/DTD/sodipodi-0.dtd"
   xmlns="http://www.w3.org/2000/svg"
   xmlns:svg="http://www.w3.org/2000/svg">
  <sodipodi:namedview
     id="namedview7"
     pagecolor="#ffffff"
     bordercolor="#666666"
     borderopacity="1.0"
     inkscape:pageshadow="2"
     inkscape:pageopacity="0.0"
     inkscape:pagecheckerboard="0"
     inkscape:document-units="mm"
     showgrid="false"
     inkscape:zoom="1.0230034"
     inkscape:rotation="-1"
     inkscape:cx="322.81962"
     inkscape:cy="269.11496"
     inkscape:window-width="1920"
     inkscape:window-height="1001"
     inkscape:window-x="-9"
     inkscape:window-y="-9"
     inkscape:window-maximized="1"
     inkscape:current-layer="layer1" />
  <defs
     id="defs2" />
  <g
     inkscape:label="Calque 1"
     inkscape:groupmode="layer"
     id="layer1"
     transform="translate(-20.973431,-25.404467)">
    <path
       style="fill:#ffffff;stroke:none;stroke-width:0.264583;stroke-opacity:1;fill-opacity:1"
       d="M 70.931574,135.63097 C 61.671257,124.33079 55.94008,116.34941 53.491338,111.34325 c -2.391008,-4.88813 -1.543326,-8.15971 5.529812,-21.342053 6.09328,-11.35616 6.308926,-13.43846 1.391706,-13.43846 -3.417054,0 -5.693518,3.96152 -5.706422,9.93036 -0.0096,4.42845 -0.991166,6.24487 -4.669129,8.64014 -3.051094,1.98701 -3.359765,2.52641 -3.491842,6.101903 -0.06415,1.73667 -0.196301,2.57969 -0.404385,2.57969 -0.331604,0 -5.338491,-6.116083 -6.859795,-8.379473 -0.875848,-1.30308 -3.331159,-8.12679 -3.768078,-10.4721 -0.181474,-0.97412 0.346427,-1.46165 0.79565,-0.73479 1.530581,2.47653 13.895069,-1.52573 13.895069,-4.4977 0,-3.35363 -7.23537,-4.13112 -7.830731,-0.84146 -0.396461,2.19063 -1.353554,3.0818 -4.188702,3.90019 -4.246138,1.22567 -8.847965,-1.02651 -12.47067,-6.10328 -2.370152,-3.32147 -2.481901,-4.0124 -0.956127,-5.91163 0.990806,-1.233319 0.443573,-1.176669 -0.727495,0.0753 -1.06867,1.14251 -2.936604,0.17126 -2.924417,-1.520579 0.006,-0.83638 0.006,-0.83638 0.400062,-0.0381 0.876857,1.776339 3.255642,1.209069 3.72022,-0.88715 0.300541,-1.35607 0.397384,-1.59228 0.930885,-2.27052 0.64469,-0.81959 1.173447,-0.87152 1.557983,-0.15301 0.472444,0.88277 -0.131345,2.35187 -1.848162,4.496819 -0.873562,1.0914 -1.589131,2.10614 -1.590153,2.25497 -0.009,1.30654 4.521583,6.8167 6.81472,8.2882 4.079661,2.61791 9.905095,1.49211 10.541501,-2.0372 0.736154,-4.08249 8.213896,-3.79525 9.255677,0.35554 0.770601,3.07032 -9.793061,7.57213 -14.007955,5.96964 -0.657813,-0.2501 -0.657813,-0.2501 -0.158696,1.55102 1.628988,5.8784 2.46991,7.50425 6.511667,12.5897 2.313105,2.910423 2.313105,2.910423 2.61697,0.785713 0.464625,-3.248803 0.825414,-3.772573 4.026176,-5.845013 3.371199,-2.1828 4.295997,-4.14781 4.295997,-9.12814 0,-6.39248 3.363878,-10.32538 7.900599,-9.23704 3.821504,0.91677 3.369407,3.58293 -2.420181,14.27263 -7.00785,12.939043 -7.831685,16.003713 -5.564182,20.698673 2.335321,4.83538 10.616543,16.22536 19.065974,26.22332 1.95726,2.31597 1.95726,2.31597 3.32763,0.82229 9.507553,-10.36311 15.948803,-22.73305 16.081123,-30.88259 0.0197,-1.21398 0.0799,-1.45729 0.23821,-0.96296 0.21183,0.66145 0.21183,0.66145 0.26207,0 0.0439,-0.57832 0.084,-0.54506 0.31882,0.26458 1.24154,4.28055 -0.7667,17.01977 -3.7527,23.80525 -0.58384,1.32673 -1.06153,2.47008 -1.06153,2.54079 0,1.1658 9.44298,-6.78025 13.048173,-10.97974 15.02212,-17.49844 14.46793,-37.764143 -1.48138,-54.171942 -5.334583,-5.48793 5.36367,-1.06011 11.28938,4.672489 6.49086,6.27931 9.24882,12.43332 9.27555,20.69714 0.0152,4.68795 0.0152,4.68795 0.77257,3.1906 1.5748,-3.1133 3.28408,-9.38643 3.69671,-13.56709 0.0503,-0.50932 0.11045,0.16002 0.13374,1.48743 0.0663,3.78182 -1.72087,9.78723 -4.39542,14.76948 -1.07046,1.994093 -1.82236,2.618123 -1.57296,1.305443 0.0796,-0.418723 0.32927,-1.713813 0.55492,-2.877983 2.14659,-11.07486 -5.2473,-24.60052 -16.33322,-29.878369 -3.654073,-1.73965 -4.146163,-1.70547 -2.41209,0.16753 15.80253,17.068619 16.04898,37.211492 0.67423,55.106172 -3.276043,3.81299 -8.063863,7.86338 -12.307453,10.41183 -2.61025,1.56756 -2.86514,1.3831 -1.49874,-1.0846 2.58238,-4.66374 4.6528,-12.68879 4.93083,-19.11214 0.12598,-2.91042 0.12598,-2.91042 -0.26588,-1.19062 -1.81254,7.95494 -8.29422,18.99855 -15.722953,26.78906 -1.92217,2.01578 -2.02784,1.96472 -6.02294,-2.91042 z M 26.514177,68.431528 c 0.854155,-1.257 0.967109,-2.6964 0.133028,-1.69521 -0.2862,0.34355 -0.520364,0.85739 -0.520364,1.14188 0,0.28448 -0.123252,0.74754 -0.273893,1.02902 -0.46363,0.8663 -0.04702,0.56659 0.661229,-0.47569 z m 98.508983,7.594129 C 123.62955,61.423408 110.05869,49.606268 87.311737,43.187568 c -4.40278,-1.24237 -4.9136,-1.64726 -2.40858,-1.90908 15.387133,-1.60829 30.766593,6.05683 37.721793,18.80049 1.32365,2.42525 1.44399,2.19149 0.34238,-0.66508 -1.73199,-4.49119 -5.22414,-9.535 -9.6514,-13.93975 -10.66468,-10.61044 -24.079763,-14.83855 -39.338586,-12.39855 -2.00269,0.32025 -1.25551,-0.60074 1.08797,-1.34105 8.588763,-2.71321 23.334403,-0.24683 30.304236,5.06873 0.29105,0.22197 -0.40087,-0.49356 -1.53758,-1.59006 -5.493383,-5.29903 -13.201653,-8.66404 -21.613463,-9.43525 -2.248953,-0.20619 -2.248953,-0.20619 0.66146,-0.23995 7.70526,-0.0894 17.740023,4.61496 23.263103,10.90588 2.30031,2.62011 1.93167,2.99909 -1.0381,1.0672 -7.735113,-5.03183 -20.147613,-7.70439 -27.352906,-5.88941 -1.32104,0.33277 -0.97756,0.35931 4.762503,0.36805 18.494853,0.0281 35.855763,11.87224 41.515663,28.32308 1.44466,4.19897 0.77937,5.7284 -0.93995,2.16086 -6.17916,-12.82162 -19.10228,-20.61465 -34.091913,-20.55839 -3.47257,0.013 -3.47257,0.013 -0.29756,0.94579 22.380613,6.57505 37.076503,19.79026 36.595043,32.907909 -0.0825,2.24896 -0.0825,2.24896 -0.27269,0.25667 z M 21.108395,66.506368 c -0.01626,-2.24471 4.838224,-8.02546 10.442404,-12.4349 2.107698,-1.65837 2.116297,-1.67018 2.029316,-2.78523 -0.205822,-2.63855 1.874954,-4.75019 9.203089,-9.33961 3.810308,-2.38629 3.810308,-2.38629 3.750297,-3.92733 -0.216062,-5.54838 14.542075,-12.64976 25.925783,-12.47508 1.65679,0.0254 2.47657,0.0846 1.82172,0.13141 -14.268661,1.02085 -27.714474,7.35689 -27.135565,12.78702 0.155141,1.45522 0.155141,1.45522 -4.241596,4.23336 -6.71907,4.24554 -9.314566,6.91775 -8.610453,8.86495 0.165065,0.45648 0.300117,0.89638 0.300117,0.97757 0,0.0812 -0.922734,0.83842 -2.050521,1.68276 -4.633008,3.4686 -10.024984,9.44499 -10.966394,12.15499 -0.45956,1.32292 -0.45956,1.32292 -0.468197,0.13009 z m 17.203544,-8.26602 c 0.0078,-0.18191 0.692875,-0.8141 1.522288,-1.40487 1.508024,-1.07413 1.508024,-1.07413 1.41307,-2.48207 -0.09495,-1.40794 -0.09495,-1.40794 0.792815,-1.24834 0.488274,0.0878 1.691442,0.23889 2.673708,0.3358 2.798315,0.27607 2.342907,0.82019 -3.095653,3.69866 -2.805326,1.48478 -3.330328,1.65958 -3.306228,1.10082 z m 6.344345,-3.66103 c 0.60997,-0.40982 0.584649,-0.42408 -1.058358,-0.59581 -1.999076,-0.20894 -1.961748,-0.23333 -1.731216,1.13118 0.197018,1.16614 0.281182,1.14999 2.789574,-0.53537 z m 20.79889,-0.70973 c -0.06968,-0.11275 0.330653,-0.88537 0.889635,-1.71694 4.093285,-6.08933 1.79795,-10.78495 -4.234635,-8.66288 -2.298353,0.80848 -2.546006,0.42391 -0.763855,-1.18617 4.299305,-3.88418 9.907705,-1.7598 9.424435,3.56984 -0.26736,2.94848 -4.500068,9.31568 -5.31558,7.99615 z m 1.020625,-0.85477 c 0.08994,-0.14552 0.103989,-0.26459 0.03123,-0.26459 -0.07276,0 -0.205875,0.11907 -0.295812,0.26459 -0.08994,0.14552 -0.10399,0.26458 -0.03123,0.26458 0.07276,0 0.205875,-0.11906 0.295812,-0.26458 z m 3.213325,-5.31033 c 1.81378,-4.5331 -1.971387,-8.28414 -6.171936,-6.11628 -1.657318,0.85533 -1.554231,0.98612 0.696677,0.8839 4.219438,-0.19162 5.912279,2.51191 4.364842,6.97082 -0.357349,1.02969 0.60678,-0.47972 1.110417,-1.73844 z"
       id="path980" />
  </g>
</svg>
